Coordinates
version=1
nRows=6
nColumns=38
inDegrees=yes

Units are S.I. units (second, meters, Newtons, ...)
Angles are in degrees.

endheader
time	pelvis_tilt	pelvis_list	pelvis_rotation	pelvis_tx	pelvis_ty	pelvis_tz	hip_flexion_r	hip_adduction_r	hip_rotation_r	knee_angle_r	ankle_angle_r	subtalar_angle_r	mtp_angle_r	hip_flexion_l	hip_adduction_l	hip_rotation_l	knee_angle_l	ankle_angle_l	subtalar_angle_l	mtp_angle_l	lumbar_extension	lumbar_bending	lumbar_rotation	arm_flex_r	arm_add_r	arm_rot_r	elbow_flex_r	pro_sup_r	wrist_flex_r	wrist_dev_r	arm_flex_l	arm_add_l	arm_rot_l	elbow_flex_l	pro_sup_l	wrist_flex_l	wrist_dev_l
      0.28500000	    -20.48408617	      0.70087941	      4.68022030	     -0.38976019	      0.79186555	      0.36653009	     58.72871738	    -10.80320952	     -1.00735127	    -58.65121156	     15.14022110	      0.00000000	      0.00000000	     56.84598767	     -4.73195556	     -3.52271989	    -54.81329758	     17.03224649	      0.00000000	      0.00000000	    -10.92986119	      0.63019473	     -2.86224327	    -15.39234689	    -51.63945410	     57.00634185	     88.47645992	     88.23038272	      0.00000000	      0.00000000	     -5.54201310	    -49.59091082	     72.92933733	     94.46205741	      4.88706274	      0.00000000	      0.00000000
      0.28750000	    -20.42892639	      0.71080287	      4.70065840	     -0.39147820	      0.78921553	      0.36661546	     59.23406885	    -10.86772957	     -0.95047434	    -59.32992551	     15.26136597	      0.00000000	      0.00000000	     57.35871890	     -4.79735628	     -3.56139792	    -55.52609270	     17.17035092	      0.00000000	      0.00000000	    -11.54908622	      0.65614098	     -2.91032025	    -15.32496251	    -51.52860302	     56.98994327	     88.19325568	     88.23051674	      0.00000000	      0.00000000	     -5.39850944	    -49.48267917	     72.98822648	     94.19635621	      4.89245491	      0.00000000	      0.00000000
      0.29000000	    -20.49511404	      0.74546169	      4.69757516	     -0.39326826	      0.78608398	      0.36678704	     59.94246622	    -10.95864253	     -0.90811228	    -60.10806724	     15.50120728	      0.00000000	      0.00000000	     58.06986904	     -4.92355053	     -3.72847392	    -56.37726799	     17.42510025	      0.00000000	      0.00000000	    -11.99755648	      0.62654142	     -2.94329696	    -15.30462246	    -51.46002178	     56.97504461	     88.08312399	     88.24106835	      0.00000000	      0.00000000	     -5.22444449	    -49.43831856	     73.13821971	     94.07630761	      4.92085642	      0.00000000	      0.00000000
      0.29250000	    -21.22929160	      0.81924290	      4.61566102	     -0.39561418	      0.78151440	      0.36707719	     61.52899233	    -11.00391704	     -0.68826329	    -61.04408635	     16.02425823	      0.00000000	      0.00000000	     59.54799807	     -5.04831409	     -4.00087515	    -57.30261802	     17.98245581	      0.00000000	      0.00000000	    -11.65856392	      0.47472457	     -2.84315088	    -15.61087515	    -51.43762598	     56.74888812	     88.20841509	     88.24533562	      0.00000000	      0.00000000	     -5.04233444	    -49.54406948	     73.50253205	     94.27745553	      5.00254649	      0.00000000	      0.00000000
      0.29500000	    -22.41006510	      0.89181182	      4.45714631	     -0.39767701	      0.77674533	      0.36733623	     63.53598554	    -10.94925929	     -0.31314263	    -61.86162151	     15.99621429	      0.00000000	      0.00000000	     61.36039617	     -5.18885501	     -4.24216033	    -58.05328692	     18.06052803	      0.00000000	      0.00000000	    -10.79046949	      0.29635097	     -2.55754949	    -16.35637872	    -51.17726110	     56.02422344	     87.92724071	     88.25058620	      0.00000000	      0.00000000	     -4.92412992	    -49.37537583	     73.80258133	     93.87494886	      5.09045505	      0.00000000	      0.00000000
      0.29750000	    -22.33930465	      0.89625414	      4.47330592	     -0.39943721	      0.77425990	      0.36740763	     63.97531807	    -11.00416894	     -0.28029318	    -62.42236214	     16.06406709	      0.00000000	      0.00000000	     61.81076673	     -5.26322956	     -4.28534791	    -58.64819152	     18.13450217	      0.00000000	      0.00000000	    -11.43894295	      0.32233296	     -2.61755587	    -16.21608341	    -51.06705227	     55.92778550	     87.72319395	     88.24606490	      0.00000000	      0.00000000	     -4.75043976	    -49.25574006	     73.80812631	     93.64167349	      5.09362366	      0.00000000	      0.00000000
